<svg width="319" height="335" xmlns="http://www.w3.org/2000/svg" xmlns:xlink="http://www.w3.org/1999/xlink" overflow="hidden"><defs><clipPath id="clip0"><rect x="822" y="61" width="319" height="335"/></clipPath></defs><g clip-path="url(#clip0)" transform="translate(-822 -61)"><path d="M374.782 166.776C374.782 148.496 351.889 131.171 316.79 120.427 324.889 84.6536 321.29 56.192 305.428 47.0798 301.771 44.9423 297.497 43.9298 292.829 43.9298L292.829 56.4733C295.416 56.4733 297.497 56.9795 299.24 57.9358 306.89 62.323 310.209 79.0288 307.622 100.516 307.003 105.803 305.991 111.372 304.753 117.053 293.728 114.353 281.692 112.271 269.036 110.922 261.442 100.516 253.567 91.066 245.636 82.7974 263.973 65.7542 281.185 56.417 292.885 56.417L292.885 43.8736C277.416 43.8736 257.167 54.8983 236.692 74.0227 216.218 55.0108 195.969 44.0987 180.5 44.0987L180.5 56.642C192.144 56.642 209.412 65.923 227.749 82.8537 219.874 91.1222 212 100.516 204.519 110.922 191.806 112.271 179.77 114.353 168.745 117.109 167.451 111.484 166.495 106.028 165.82 100.797 163.176 79.3101 166.439 62.6043 174.032 58.1607 175.72 57.1482 177.913 56.6982 180.5 56.6982L180.5 44.1549C175.776 44.1549 171.501 45.1674 167.789 47.3048 151.983 56.417 148.44 84.8224 156.596 120.483 121.609 131.283 98.8282 148.551 98.8282 166.776 98.8282 185.057 121.721 202.381 156.82 213.124 148.72 248.899 152.32 277.36 168.182 286.473 171.838 288.609 176.113 289.622 180.838 289.622 196.306 289.622 216.556 278.597 237.03 259.473 257.504 278.485 277.754 289.397 293.222 289.397 297.948 289.397 302.222 288.385 305.935 286.247 321.74 277.135 325.284 248.73 317.128 213.068 352.002 202.325 374.782 185 374.782 166.776ZM301.547 129.258C299.466 136.515 296.878 143.996 293.953 151.477 291.648 146.977 289.229 142.477 286.585 137.977 283.998 133.478 281.241 129.09 278.485 124.814 286.473 125.997 294.179 127.458 301.547 129.258ZM275.785 189.162C271.398 196.756 266.898 203.956 262.23 210.65 253.848 211.381 245.355 211.774 236.805 211.774 228.312 211.774 219.818 211.381 211.494 210.706 206.825 204.013 202.269 196.869 197.882 189.331 193.606 181.963 189.726 174.482 186.181 166.945 189.669 159.407 193.606 151.87 197.825 144.502 202.213 136.908 206.712 129.709 211.381 123.015 219.762 122.283 228.255 121.89 236.805 121.89 245.299 121.89 253.792 122.283 262.117 122.958 266.785 129.653 271.342 136.796 275.729 144.333 280.004 151.701 283.885 159.182 287.428 166.719 283.885 174.257 280.004 181.794 275.785 189.162ZM293.953 181.85C296.991 189.388 299.578 196.925 301.716 204.237 294.347 206.038 286.585 207.556 278.542 208.737 281.297 204.406 284.054 199.962 286.642 195.407 289.229 190.907 291.648 186.35 293.953 181.85ZM236.918 241.867C231.687 236.468 226.456 230.449 221.281 223.868 226.343 224.093 231.518 224.261 236.749 224.261 242.036 224.261 247.268 224.15 252.386 223.868 247.324 230.449 242.093 236.468 236.918 241.867ZM195.069 208.737C187.082 207.556 179.376 206.093 172.007 204.293 174.089 197.038 176.675 189.557 179.601 182.076 181.907 186.576 184.325 191.075 186.969 195.575 189.613 200.075 192.312 204.462 195.069 208.737ZM236.637 91.6847C241.867 97.0844 247.099 103.103 252.274 109.685 247.211 109.459 242.036 109.29 236.805 109.29 231.518 109.29 226.287 109.403 221.168 109.685 226.23 103.103 231.462 97.0844 236.637 91.6847ZM195.013 124.814C192.257 129.146 189.5 133.589 186.913 138.146 184.325 142.646 181.907 147.146 179.601 151.646 176.564 144.109 173.976 136.571 171.838 129.258 179.207 127.515 186.969 125.997 195.013 124.814ZM144.109 195.238C124.196 186.744 111.315 175.607 111.315 166.776 111.315 157.945 124.196 146.751 144.109 138.315 148.946 136.233 154.232 134.377 159.689 132.633 162.895 143.658 167.114 155.133 172.344 166.888 167.17 178.588 163.007 190.006 159.857 200.975 154.289 199.231 149.002 197.318 144.109 195.238ZM174.369 275.616C166.719 271.229 163.402 254.523 165.989 233.036 166.608 227.749 167.62 222.181 168.857 216.5 179.882 219.199 191.919 221.281 204.575 222.631 212.169 233.036 220.043 242.486 227.974 250.755 209.637 267.798 192.425 277.135 180.726 277.135 178.194 277.079 176.057 276.573 174.369 275.616ZM307.791 232.756C310.435 254.242 307.172 270.948 299.578 275.392 297.891 276.404 295.697 276.854 293.109 276.854 281.466 276.854 264.199 267.573 245.861 250.642 253.736 242.373 261.611 232.98 269.092 222.574 281.803 221.224 293.841 219.144 304.865 216.387 306.159 222.068 307.172 227.524 307.791 232.756ZM329.446 195.238C324.609 197.318 319.321 199.175 313.865 200.919 310.659 189.894 306.441 178.42 301.209 166.663 306.384 154.964 310.546 143.545 313.696 132.577 319.265 134.321 324.552 136.233 329.502 138.315 349.414 146.808 362.295 157.945 362.295 166.776 362.239 175.607 349.358 186.8 329.446 195.238Z" fill="#ED7D31" transform="matrix(1 0 0 1.00046 743.982 61.7839)"/><path d="M262.454 166.776C262.454 180.973 250.946 192.481 236.749 192.481 222.552 192.481 211.044 180.973 211.044 166.776 211.044 152.579 222.552 141.07 236.749 141.07 250.946 141.07 262.454 152.579 262.454 166.776Z" fill="#ED7D31" transform="matrix(1 0 0 1.00046 743.982 61.7839)"/></g></svg>